<svg width="370" height="370" viewBox="0 0 370 370" fill="none" xmlns="http://www.w3.org/2000/svg">
<g clip-path="url(#clip0_99_6)">
<path d="M291.778 369.959L9.12328e-05 291.777L78.1816 -0.000244141L369.959 78.1813L291.778 369.959ZM172.107 140.088C163.038 137.658 153.716 143.04 151.286 152.109L139.381 196.541C136.951 205.61 142.333 214.932 151.402 217.362L197.766 229.785C206.835 232.215 216.157 226.833 218.587 217.764L230.492 173.332C232.922 164.263 227.54 154.941 218.472 152.511L172.107 140.088Z" fill="url(#paint0_linear_99_6)"/>
<path d="M478.867 114.517L138.666 310.932L4.99986 79.4154L65.5317 44.4665L143.803 180.036L139.381 196.541C136.951 205.61 142.333 214.932 151.401 217.362L197.766 229.785C206.835 232.215 216.157 226.833 218.587 217.764L229.016 178.841L444.258 54.5716L478.867 114.517Z" fill="white"/>
<path d="M286.916 235.893L459.95 141.71" stroke="white" stroke-width="4"/>
</g>
<defs>
<linearGradient id="paint0_linear_99_6" x1="361.5" y1="81" x2="8" y2="287.5" gradientUnits="userSpaceOnUse">
<stop stop-color="#787878"/>
<stop offset="1" stop-color="#3D3D3D"/>
</linearGradient>
<clipPath id="clip0_99_6">
<rect x="78.1633" width="302" height="302" rx="13" transform="rotate(15 78.1633 0)" fill="white"/>
</clipPath>
</defs>
</svg>
